<?xml version="1.0" encoding="UTF-8"?>
<svg version="1.1" xmlns="http://www.w3.org/2000/svg" width="112" height="132">
<path d="M0 0 C3.85245306 0.71825396 6.4452909 2.00855199 9.84375 3.8515625 C11.74876672 4.87623935 11.74876672 4.87623935 14.3125 4.625 C16.82759147 3.68374015 16.82759147 3.68374015 19.625 2.125 C23.00708932 0.53748869 25.00007062 0.19584275 28.6875 0.6875 C31.49524639 2.91359049 32.56809692 5.48928704 34.0625 8.6875 C36.06656975 12.18699236 37.0943216 13.45657897 40.8984375 14.9375 C43.20464677 15.42623309 45.52671856 15.84665522 47.859375 16.1875 C50.6875 16.6875 50.6875 16.6875 52.6875 18.6875 C52.6604205 20.64347313 52.62232361 22.60043096 52.50756836 24.55322266 C51.91429393 31.6428851 51.91429393 31.6428851 54.203125 38.12109375 C55.44787299 39.21657318 56.72455928 40.27718909 58.03515625 41.29296875 C59.6875 42.6875 59.6875 42.6875 61.0625 46.125 C60.50378101 51.4328304 57.42636997 54.08905707 53.6875 57.6875 C52.30784147 58.83345485 52.30784147 58.83345485 52.66015625 61.92578125 C52.69832321 63.96871814 52.75032801 66.01044673 52.81445312 68.05273438 C52.90207529 73.32552677 52.90207529 73.32552677 51.53881836 75.62524414 C50.41467547 77.69951296 50.41467547 77.69951296 51.46679688 79.91064453 C51.94181641 80.70583496 52.41683594 81.50102539 52.90625 82.3203125 C53.68742187 83.65449219 53.68742187 83.65449219 54.484375 85.015625 C55.04640625 85.93859375 55.6084375 86.8615625 56.1875 87.8125 C56.98414062 89.16214844 56.98414062 89.16214844 57.796875 90.5390625 C59.9578409 94.18962626 62.12862831 97.82387446 64.43359375 101.38574219 C69.52551666 109.38006116 69.52551666 109.38006116 68.6875 114.6875 C67.72094482 114.59940063 67.72094482 114.59940063 66.73486328 114.50952148 C54.53579949 113.17495287 54.53579949 113.17495287 43.69726562 117.40332031 C40.57956019 121.59669164 38.52492109 126.22424096 36.80810547 131.14282227 C36.43830566 131.65256592 36.06850586 132.16230957 35.6875 132.6875 C33.07080078 132.91772461 33.07080078 132.91772461 30.6875 132.6875 C29.9761792 131.43876099 29.9761792 131.43876099 29.25048828 130.16479492 C27.48856568 127.07237116 25.72521113 123.98076594 23.96142578 120.8894043 C23.19866563 119.55206176 22.4362925 118.21449841 21.67431641 116.87670898 C20.57816944 114.95237796 19.48062707 113.02884879 18.3828125 111.10546875 C18.0431546 110.50848679 17.7034967 109.91150482 17.35354614 109.2964325 C15.86915182 106.69856735 14.34831425 104.17872138 12.6875 101.6875 C11.77284868 103.21191887 10.85832535 104.73641465 9.94433594 106.26123047 C9.14109758 107.59875698 8.33572073 108.93500133 7.52832031 110.27001953 C5.38802102 113.81587612 3.28749673 117.37560253 1.26171875 120.98828125 C0.87169678 121.67140381 0.4816748 122.35452637 0.07983398 123.05834961 C-0.66965222 124.37327421 -1.40633101 125.69559941 -2.12866211 127.02563477 C-3.84659087 130.00678192 -4.74296919 131.49926524 -8.078125 132.6015625 C-8.81546875 132.62992188 -9.5528125 132.65828125 -10.3125 132.6875 C-10.76753906 131.47191406 -11.22257812 130.25632813 -11.69140625 129.00390625 C-13.88014884 123.99328312 -16.03217194 119.23408637 -20.3125 115.6875 C-27.64049756 113.26361381 -35.72459313 113.99587908 -43.3125 114.6875 C-43.6089967 110.01167842 -42.96667998 107.34657834 -40.609375 103.31640625 C-40.04089844 102.32962891 -39.47242188 101.34285156 -38.88671875 100.32617188 C-37.98373047 98.8034668 -37.98373047 98.8034668 -37.0625 97.25 C-36.47597656 96.23873047 -35.88945313 95.22746094 -35.28515625 94.18554688 C-30.72726649 86.3347098 -30.72726649 86.3347098 -28.96289062 83.58154297 C-26.78093244 80.17319476 -26.78093244 80.17319476 -26.5859375 76.2421875 C-26.82570313 75.39914063 -27.06546875 74.55609375 -27.3125 73.6875 C-27.2361384 71.76238388 -27.15770495 69.83713009 -27.04467773 67.91381836 C-26.56897963 61.33640644 -26.56897963 61.33640644 -28.83203125 55.33203125 C-30.07675876 54.22419842 -31.35221774 53.14962976 -32.66015625 52.1171875 C-34.3125 50.6875 -34.3125 50.6875 -35.6875 47.25 C-35.19739772 42.59402833 -33.29013154 40.74594983 -30.07421875 37.484375 C-28.12444402 35.60737063 -28.12444402 35.60737063 -26.3125 32.6875 C-26.45564039 29.36057029 -26.89192278 26.11836175 -27.31640625 22.81640625 C-27.3125 19.6875 -27.3125 19.6875 -26.11328125 17.35546875 C-24.02363058 15.41993548 -22.71958336 14.95023891 -19.9375 14.4375 C-18.75220703 14.21707031 -18.75220703 14.21707031 -17.54296875 13.9921875 C-15.10638845 13.65934466 -12.7684349 13.52905259 -10.3125 13.6875 C-10.085625 12.841875 -9.85875 11.99625 -9.625 11.125 C-5.84007079 1.21209016 -5.84007079 1.21209016 0 0 Z M-0.3125 6.6875 C-0.68761719 7.45835937 -1.06273438 8.22921875 -1.44921875 9.0234375 C-2.21685547 10.52777344 -2.21685547 10.52777344 -3 12.0625 C-3.49886719 13.06023438 -3.99773438 14.05796875 -4.51171875 15.0859375 C-7.5359322 19.45497472 -11.62300362 19.87879401 -16.625 20.8125 C-17.94951172 21.06386719 -17.94951172 21.06386719 -19.30078125 21.3203125 C-19.96464844 21.44148438 -20.62851562 21.56265625 -21.3125 21.6875 C-21.1475 22.66589844 -20.9825 23.64429687 -20.8125 24.65234375 C-19.38680074 35.06805346 -19.38680074 35.06805346 -22.02734375 39.6875 C-24.01816858 41.87075957 -26.01503949 43.83243889 -28.3125 45.6875 C-27.01141531 48.4954223 -25.81308516 50.27218079 -23.75 52.6875 C-20.03186103 57.26367103 -20.18450306 60.15686464 -20.75 65.9375 C-20.85183594 67.01515625 -20.95367188 68.0928125 -21.05859375 69.203125 C-21.18427734 70.43289062 -21.18427734 70.43289062 -21.3125 71.6875 C-19.90097656 71.82091797 -19.90097656 71.82091797 -18.4609375 71.95703125 C-8.41124497 73.40310502 -8.41124497 73.40310502 -5.046875 77.3359375 C-3.59383242 80.07978976 -2.35465139 82.76451347 -1.3125 85.6875 C1.87300226 85.13207909 4.15580649 84.46611875 7.125 83.0625 C12.77558615 80.88157201 16.24197318 82.42226951 21.5625 84.75 C22.94066556 85.38905037 24.31679219 86.03260627 25.6875 86.6875 C26.03039062 85.85605469 26.37328125 85.02460937 26.7265625 84.16796875 C30.95034632 75.39789545 30.95034632 75.39789545 36.26953125 73.22265625 C39.75095928 72.51367243 43.14809899 71.982041 46.6875 71.6875 C46.51089844 70.70910156 46.33429688 69.73070312 46.15234375 68.72265625 C44.64160744 58.30694654 44.64160744 58.30694654 47.625 53.6875 C49.87946336 51.48939823 52.13281318 49.52508175 54.6875 47.6875 C54.28917969 47.24019531 53.89085938 46.79289062 53.48046875 46.33203125 C52.95066406 45.72746094 52.42085938 45.12289062 51.875 44.5 C51.35292969 43.90832031 50.83085938 43.31664062 50.29296875 42.70703125 C46.43319366 37.85179105 45.30127659 35.16351067 46 28.875 C46.11988281 27.71355469 46.23976563 26.55210938 46.36328125 25.35546875 C46.47027344 24.47503906 46.57726562 23.59460938 46.6875 22.6875 C43.30358663 21.49063291 40.24612114 20.61327591 36.6875 20.25 C33.52869323 19.53926848 32.77301753 18.80689842 30.84375 16.11328125 C29.34052637 13.34437169 27.95967268 10.56916388 26.6875 7.6875 C23.50199774 8.24292091 21.21919351 8.90888125 18.25 10.3125 C12.59941385 12.49342799 9.13302682 10.95273049 3.8125 8.625 C2.43433444 7.98594963 1.05820781 7.34239373 -0.3125 6.6875 Z M-18.3125 77.6875 C-20.41320814 81.45886206 -22.51278392 85.23085157 -24.61132812 89.00341797 C-25.32488678 90.28581626 -26.03875063 91.56804478 -26.75292969 92.85009766 C-27.78140919 94.69649052 -28.8087774 96.5434979 -29.8359375 98.390625 C-30.45388184 99.50083008 -31.07182617 100.61103516 -31.70849609 101.75488281 C-32.96162447 104.04599059 -34.16897928 106.34053607 -35.3125 108.6875 C-34.02214844 108.62046875 -32.73179688 108.5534375 -31.40234375 108.484375 C-20.98841804 108.27219981 -20.98841804 108.27219981 -16.3125 109.6875 C-12.67881697 113.25924525 -11.15550097 117.00858978 -9.3125 121.6875 C-8.6525 122.0175 -7.9925 122.3475 -7.3125 122.6875 C-4.99967975 118.78221496 -2.70330133 114.86790208 -0.42163086 110.94433594 C0.35679765 109.61099933 1.13965364 108.28023732 1.92700195 106.95214844 C3.05814215 105.04241269 4.1730252 103.12397726 5.28515625 101.203125 C5.640298 100.61130432 5.99543976 100.01948364 6.36134338 99.409729 C8.45725479 95.74472499 8.76503971 94.99765885 7.6875 90.6875 C4.0575 91.0175 0.4275 91.3475 -3.3125 91.6875 C-4.075625 90.470625 -4.83875 89.25375 -5.625 88 C-6.08777344 87.27296875 -6.55054687 86.5459375 -7.02734375 85.796875 C-8.3125 83.6875 -8.3125 83.6875 -9.6875 80.75 C-11.25850495 78.28414485 -11.25850495 78.28414485 -14.9140625 78.05859375 C-16.03554688 77.93613281 -17.15703125 77.81367187 -18.3125 77.6875 Z M34.6875 81.6875 C33.22078232 83.97821638 31.94128313 86.30510135 30.703125 88.7265625 C29.6875 90.6875 29.6875 90.6875 28.6875 91.6875 C23.66001892 92.30060745 20.65817073 90.90317676 16.421875 88.46484375 C15.84953125 88.20832031 15.2771875 87.95179687 14.6875 87.6875 C13.6975 88.1825 13.6975 88.1825 12.6875 88.6875 C14.73025206 92.24492484 16.77501439 95.80118602 18.8215332 99.35644531 C19.51542711 100.56251815 20.20879975 101.76889105 20.90161133 102.97558594 C23.14843778 106.88847071 25.41015864 110.79225773 27.6875 114.6875 C28.44667725 115.98880859 28.44667725 115.98880859 29.22119141 117.31640625 C30.31790918 119.14332942 31.49295894 120.92298596 32.6875 122.6875 C33.3475 122.6875 34.0075 122.6875 34.6875 122.6875 C34.97238281 121.76066406 35.25726563 120.83382812 35.55078125 119.87890625 C38.58894202 112.27122065 38.58894202 112.27122065 41.6875 109.6875 C47.75620654 107.71496799 54.40419981 108.30460159 60.6875 108.6875 C59.35577539 106.22976433 58.01707612 103.77638635 56.66796875 101.328125 C55.15247963 98.56639211 53.69136074 95.77940623 52.23828125 92.984375 C51.3675451 91.34356018 50.4964508 89.70293538 49.625 88.0625 C49.2139502 87.25635254 48.80290039 86.45020508 48.37939453 85.61962891 C46.12155523 81.15857957 46.12155523 81.15857957 42.03515625 78.609375 C38.60602886 78.72348906 37.32770175 79.44332851 34.6875 81.6875 Z " fill="#FFFFFF" transform="translate(43.3125,-0.6875)"/>
<path d="M0 0 C6.98686678 6.45373237 10.10090575 12.3468031 10.5 21.8125 C10.31341032 29.44645182 8.50713708 35.15846148 3.3203125 40.83984375 C-2.69572086 46.30774962 -8.8675644 48.97380858 -17 49 C-25.50834798 48.39320309 -30.95703897 45.26756998 -36.7578125 39.14453125 C-41.87205489 32.95555677 -43.34938018 26.88032711 -42.875 18.9375 C-41.66078276 10.20862718 -37.87393691 5.38907187 -31.31640625 -0.3359375 C-22.20121079 -6.88412176 -9.03603076 -6.52393922 0 0 Z M-32.375 9.5625 C-36.42136798 15.63205197 -36.91160223 20.74439038 -36 28 C-33.61817569 34.10219452 -29.44282142 38.03267348 -23.8125 41.25 C-17.206934 43.01148427 -10.83706764 42.81296526 -4.82421875 39.41015625 C-0.65968505 36.19089144 2.34330687 31.9700794 4 27 C4.74070307 20.16367497 4.09685922 14.64260672 0 9 C-3.58597943 5.23184514 -7.52406517 2.33601973 -12.734375 1.62890625 C-21.48743204 1.43615758 -26.42082025 3.13825342 -32.375 9.5625 Z " fill="#FFFFFF" transform="translate(72,24)"/>
</svg>
