<?xml version="1.0" encoding="UTF-8"?>
<svg version="1.1" xmlns="http://www.w3.org/2000/svg" width="460" height="244">
<path d="M0 0 C1.9453125 -0.29296875 1.9453125 -0.29296875 4.125 -0.1875 C5.40375 -0.125625 6.6825 -0.06375 8 0 C8.44730469 0.86882813 8.89460938 1.73765625 9.35546875 2.6328125 C9.96003906 3.78523437 10.56460938 4.93765625 11.1875 6.125 C11.77917969 7.26195312 12.37085938 8.39890625 12.98046875 9.5703125 C16.65504618 15.81069738 20.8505055 19.94680756 26.75 23.9375 C27.99563225 24.80608744 29.24042394 25.67588155 30.484375 26.546875 C31.38639648 27.17432617 31.38639648 27.17432617 32.30664062 27.81445312 C43.18047535 35.42739162 51.80152994 43.53336469 54.68359375 56.95703125 C56.80979778 70.68548446 52.23596142 84.437229 45 96 C42.51171875 98.9140625 42.51171875 98.9140625 40 101 C36.1875 100.8125 36.1875 100.8125 33 100 C31.8125 97.3125 31.8125 97.3125 31 94 C31.495 93.21625 31.99 92.4325 32.5 91.625 C34.39221615 88.94082603 34.39221615 88.94082603 33.4375 85.1875 C29.61922331 72.8246651 23.01090211 66.43632442 12 60 C11.01 59.505 11.01 59.505 10 59 C10.00888245 59.84667236 10.01776489 60.69334473 10.0269165 61.56567383 C10.10726879 69.56870797 10.1680689 77.57160542 10.20724869 85.57495117 C10.2280691 89.68897802 10.25628411 93.80266983 10.30175781 97.91650391 C10.34541523 101.89117701 10.36917877 105.8655291 10.37950897 109.84042358 C10.38686487 111.35221404 10.401229 112.86398814 10.42292023 114.37564087 C10.54916647 123.5434029 10.49137165 130.67107653 4.32421875 137.98828125 C-3.94318746 144.67718508 -12.42611342 146.84652658 -23 146 C-31.20821314 144.42768768 -38.99604802 141.31524338 -43.9375 134.3125 C-46.83783968 129.09188858 -47.72276514 123.63284586 -46.5546875 117.76171875 C-44.00428783 109.97860252 -38.0038123 105.69758106 -31 102 C-23.30145887 98.94963465 -15.62116349 99.11878537 -7.80395508 101.52270508 C-6.90413406 101.79786453 -6.00431305 102.07302399 -5.07722473 102.35652161 C-4.39174057 102.56886948 -3.70625641 102.78121735 -3 103 C-2.99191315 101.75385422 -2.98382629 100.50770844 -2.97549438 99.22380066 C-2.89810259 87.49587507 -2.81038103 75.76806649 -2.71247292 64.04029369 C-2.66246802 58.01052857 -2.61613834 51.98078133 -2.578125 45.95092773 C-2.54132521 40.13480451 -2.49497973 34.31882939 -2.44193649 28.50283241 C-2.4233643 26.28084211 -2.40826686 24.05882004 -2.39665604 21.83678246 C-2.37984197 18.73112099 -2.35081857 15.62580082 -2.31884766 12.52026367 C-2.31668747 11.59597565 -2.31452728 10.67168762 -2.31230164 9.71939087 C-2.30113815 8.87385147 -2.28997467 8.02831207 -2.2784729 7.15715027 C-2.27017676 6.05514676 -2.27017676 6.05514676 -2.26171303 4.93088055 C-2 3 -2 3 0 0 Z " fill="#FFFFFF" transform="translate(226,0)"/>
<path d="M0 0 C4.62 0 9.24 0 14 0 C19.61 13.2 25.22 26.4 31 40 C32.54242985 37.68635523 33.61565431 35.77470863 34.69580078 33.26293945 C35.17607224 32.15212761 35.17607224 32.15212761 35.66604614 31.01887512 C36.00570404 30.22502914 36.34536194 29.43118317 36.6953125 28.61328125 C37.04761932 27.79627243 37.39992615 26.97926361 37.76290894 26.13749695 C38.88639199 23.53035384 40.00574264 20.92145962 41.125 18.3125 C41.88644706 16.54350282 42.6481626 14.77462118 43.41015625 13.00585938 C45.27655429 8.67190692 47.13924838 4.33637953 49 0 C53.62 0 58.24 0 63 0 C63 19.47 63 38.94 63 59 C59.04 59 55.08 59 51 59 C50.67 48.44 50.34 37.88 50 27 C48.60974609 30.33931641 48.60974609 30.33931641 47.19140625 33.74609375 C46.29510773 35.89420975 45.39796207 38.04197005 44.50073242 40.18969727 C43.87614609 41.68607154 43.25244538 43.18281579 42.62963867 44.67993164 C41.7358719 46.82795823 40.83896065 48.97464756 39.94140625 51.12109375 C39.6622084 51.79401962 39.38301056 52.4669455 39.09535217 53.16026306 C37.11387171 57.88612829 37.11387171 57.88612829 36 59 C32.7 59 29.4 59 26 59 C21.71 48.44 17.42 37.88 13 27 C12.67 37.56 12.34 48.12 12 59 C8.04 59 4.08 59 0 59 C0 39.53 0 20.06 0 0 Z " fill="#FFFFFF" transform="translate(0,163)"/>
<path d="M0 0 C0 -1.32 0 -2.64 0 -4 C4.29 -4 8.58 -4 13 -4 C13.09934599 3.22245332 13.17169506 10.44450326 13.21972656 17.66748047 C13.23976324 20.12132706 13.26700032 22.57512637 13.30175781 25.02880859 C13.35062498 28.56880403 13.3730492 32.10816468 13.390625 35.6484375 C13.41127014 36.73426117 13.43191528 37.82008484 13.45318604 38.93881226 C13.45545818 46.76263839 12.38319852 54.25315634 6.96484375 60.25390625 C5.96130859 60.90166016 5.96130859 60.90166016 4.9375 61.5625 C4.26589844 62.01753906 3.59429687 62.47257812 2.90234375 62.94140625 C-3.70469026 66.61801039 -14.4523217 66.14181306 -21.72265625 64.31640625 C-26.71593662 61.9977539 -30.7398311 58.27907823 -32.74609375 53.05859375 C-33.23445726 51.39142178 -33.62673608 49.69665416 -34 48 C-31.91781638 47.89167831 -29.83400871 47.81426459 -27.75 47.75 C-26.58984375 47.70359375 -25.4296875 47.6571875 -24.234375 47.609375 C-20.37791247 48.07513134 -19.42936953 49.08029901 -17 52 C-13.50797535 53.74601232 -9.81017721 53.55838804 -6 53 C-2.75 51.25 -2.75 51.25 -1 48 C-0.61240095 44.95020747 -0.70054537 42.05443727 -1 39 C-1.78375 39.639375 -2.5675 40.27875 -3.375 40.9375 C-8.2798471 44.16892867 -13.68325323 44.46456062 -19.3984375 43.6640625 C-25.67810456 42.01377457 -29.46218775 38.35081852 -33 33 C-36.27215709 26.10829928 -36.85968008 18.13167494 -35 10.75 C-32.87210313 4.79763983 -29.45511759 -0.03846757 -23.89453125 -3.1953125 C-15.29578217 -6.57393603 -7.48275368 -5.0427253 0 0 Z M-21 12 C-23.27357041 15.81019041 -23.2001305 18.43409651 -22.6171875 22.7421875 C-21.60588371 26.44176719 -19.72783164 28.33870084 -17 31 C-13.77140153 32.61429923 -10.49006347 32.59570657 -7 32 C-3.97491855 30.26397895 -1.58209931 28.16419863 0 25 C0.76707049 18.30155008 0.76707049 18.30155008 -1.046875 11.9765625 C-3.35149047 9.19746737 -5.36242179 7.22520722 -8.98828125 6.7265625 C-14.79043848 6.47302286 -17.33466766 7.11289021 -21 12 Z " fill="#FFFFFF" transform="translate(394,179)"/>
<path d="M0 0 C4.95 0 9.9 0 15 0 C16.06541016 3.01447266 16.06541016 3.01447266 17.15234375 6.08984375 C17.84005423 8.02945944 18.52874326 9.96872502 19.2175293 11.90795898 C19.69674565 13.25883235 20.17493931 14.61006895 20.65209961 15.96166992 C21.33701135 17.90118634 22.02555629 19.83937881 22.71484375 21.77734375 C23.33540649 23.52905884 23.33540649 23.52905884 23.96850586 25.31616211 C24.74570905 27.88116281 24.74570905 27.88116281 26 29 C29.63 19.43 33.26 9.86 37 0 C41.29 0 45.58 0 50 0 C48.87509019 6.74945883 48.87509019 6.74945883 47.46875 10.00390625 C47.00148499 11.09899254 47.00148499 11.09899254 46.52478027 12.21620178 C46.18660278 12.99048019 45.84842529 13.76475861 45.5 14.5625 C45.14796509 15.38346664 44.79593018 16.20443329 44.43322754 17.05027771 C43.29465923 19.7027409 42.14733444 22.35131853 41 25 C39.44511535 28.61468473 37.89453591 32.23121155 36.34375 35.84765625 C35.96424194 36.7309108 35.58473389 37.61416534 35.19372559 38.52418518 C31.8363579 46.34884522 28.59202729 54.21503915 25.42578125 62.11914062 C23.09704909 67.90295091 23.09704909 67.90295091 22 69 C19.81360547 69.07258946 17.62499611 69.08373783 15.4375 69.0625 C13.64119141 69.04896484 13.64119141 69.04896484 11.80859375 69.03515625 C10.41833984 69.01775391 10.41833984 69.01775391 9 69 C9.73736237 63.57511974 12.22112437 58.9872138 14.6484375 54.14648438 C14.96296875 53.47294922 15.2775 52.79941406 15.6015625 52.10546875 C16.03976318 51.21057739 16.03976318 51.21057739 16.48681641 50.29760742 C18.02601173 43.40637661 15.05416236 36.94154826 12.40234375 30.72265625 C12.04862198 29.87070175 11.69490021 29.01874725 11.33045959 28.14097595 C10.20870467 25.44418566 9.07361306 22.75326872 7.9375 20.0625 C6.80068549 17.34561652 5.66661509 14.62760758 4.53382874 11.90904236 C3.83011404 10.22287739 3.12351276 8.53791376 2.4138031 6.85426331 C0 1.10785958 0 1.10785958 0 0 Z " fill="#FFFFFF" transform="translate(410,175)"/>
<path d="M0 0 C5.89194647 5.89194647 8.14538328 11.1467313 8.5 19.3125 C8.29488045 26.74808375 6.4166068 32.49597469 1.16796875 37.87890625 C-4.95953008 42.8945118 -10.6884876 44.29520549 -18.5 43.875 C-25.29358458 43.05638247 -29.91982522 41.03394867 -34.8125 36.25 C-39.63270707 29.0885495 -40.91871492 22.62081806 -40 14 C-38.73656504 8.30964564 -36.19145725 4.09831375 -32 0 C-22.14379523 -6.25759045 -9.77096024 -6.98879616 0 0 Z M-22 8 C-25.26207904 10.82713517 -26.74621979 12.38244765 -27.41796875 16.6640625 C-27.53363682 20.751001 -27.30653146 24.13449942 -25.9375 28 C-23.17073168 30.85601891 -20.82169835 31.91718547 -17 33 C-12.06609072 32.24736977 -9.10301837 30.9384464 -6 27 C-4.33484849 22.00454547 -4.13407883 16.99161868 -6.25 12.125 C-8.7202014 9.12546973 -10.73028853 7.42323716 -14.4375 6.1875 C-17.67801232 5.95038934 -19.17453679 6.37535865 -22 8 Z " fill="#FFFFFF" transform="translate(275,179)"/>
<path d="M0 0 C4.39434486 2.95758515 8.8077051 6.5633853 10.59765625 11.72265625 C11.96101901 19.43955421 12.60755106 28.48158192 8.31640625 35.359375 C3.35053472 41.548295 -2.08778504 44.81546782 -10 46 C-17.75603272 46.15807132 -23.63996188 44.88003267 -29.625 39.75 C-35.3534027 33.11711266 -37.11330192 27.73683656 -37 19 C-36.22439116 12.05531773 -33.19428844 7.19428844 -28.3125 2.3125 C-19.9345265 -4.24601461 -9.36633865 -4.54661036 0 0 Z M-20 11 C-22.94265179 14.24706405 -23.918002 16.91352651 -24.25 21.3125 C-23.92008864 26.17869254 -22.65354066 29.40157736 -19.125 32.8125 C-16.56500321 34.24308644 -14.94962099 34.86280833 -12 35 C-8.16390856 33.80948886 -5.71690829 32.86028995 -3.125 29.75 C-1.10133664 24.80326734 -0.47745196 20.84276601 -2.1875 15.75 C-3.57413761 12.52075835 -4.74379628 10.58158466 -8 9 C-12.99585695 7.4795218 -15.6413502 8.19109235 -20 11 Z " fill="#FFFFFF" transform="translate(344,177)"/>
<path d="M0 0 C3.96 0 7.92 0 12 0 C12.04898438 1.96324219 12.09796875 3.92648438 12.1484375 5.94921875 C12.22347579 8.52865992 12.29902316 11.10808631 12.375 13.6875 C12.4059375 14.98107422 12.436875 16.27464844 12.46875 17.60742188 C12.50742188 18.85458984 12.54609375 20.10175781 12.5859375 21.38671875 C12.6173584 22.53358154 12.6487793 23.68044434 12.68115234 24.86206055 C13.12001816 29.1811588 13.85387575 32.01760779 17.1875 34.875 C20.89950586 36.35980235 23.16286868 35.99481182 27 35 C29.82059832 33.02558118 30.35658 31.29503734 31 28 C31.1472796 25.8305592 31.2472547 23.65770947 31.31640625 21.484375 C31.35830078 20.23398438 31.40019531 18.98359375 31.44335938 17.6953125 C31.48267578 16.39335937 31.52199219 15.09140625 31.5625 13.75 C31.60568359 12.43257812 31.64886719 11.11515625 31.69335938 9.7578125 C31.79941854 6.50533146 31.90021153 3.25267947 32 0 C35.96 0 39.92 0 44 0 C44 15.51 44 31.02 44 47 C40.04 47 36.08 47 32 47 C31.67 45.68 31.34 44.36 31 43 C30.278125 43.66 29.55625 44.32 28.8125 45 C23.8228408 48.34628696 17.73274509 47.59883452 12 47 C6.45112822 45.15037607 3.52364692 42.01169462 0.90283203 36.83129883 C-0.24983901 33.21650001 -0.24924048 29.82473869 -0.1953125 26.07421875 C-0.1924826 25.32662796 -0.18965271 24.57903717 -0.18673706 23.80879211 C-0.17559469 21.4348612 -0.15050162 19.06131575 -0.125 16.6875 C-0.11496249 15.0722711 -0.10583799 13.45703624 -0.09765625 11.84179688 C-0.07567489 7.89438406 -0.04118657 3.94725726 0 0 Z " fill="#FFFFFF" transform="translate(72,175)"/>
<path d="M0 0 C3.3184722 3.58701909 4.06534308 6.94061383 4.3515625 11.7109375 C2.41528481 11.81900881 0.47728494 11.89656 -1.4609375 11.9609375 C-3.07935547 12.03054687 -3.07935547 12.03054687 -4.73046875 12.1015625 C-7.6484375 11.7109375 -7.6484375 11.7109375 -9.2734375 9.7109375 C-9.9540625 8.7209375 -9.9540625 8.7209375 -10.6484375 7.7109375 C-12.6973023 7.23036035 -12.6973023 7.23036035 -14.8359375 7.4609375 C-16.723125 7.5846875 -16.723125 7.5846875 -18.6484375 7.7109375 C-18.9784375 9.0309375 -19.3084375 10.3509375 -19.6484375 11.7109375 C-15.32469753 13.67627385 -11.0824569 15.17824536 -6.5234375 16.5234375 C-1.07365577 18.32411632 1.5009459 19.69778417 4.3515625 24.7109375 C5.58550934 28.95262978 5.51825831 31.16454567 4.2265625 35.3984375 C1.45145008 40.30113611 -0.99433588 42.11203864 -6.2734375 44.0234375 C-12.59850921 45.36511938 -18.99580002 44.69339583 -25.0234375 42.4609375 C-32.14173109 37.71540844 -32.14173109 37.71540844 -33.1796875 33.609375 C-33.42858076 31.65279747 -33.54827818 29.68073739 -33.6484375 27.7109375 C-29.6884375 27.7109375 -25.7284375 27.7109375 -21.6484375 27.7109375 C-20.9884375 29.3609375 -20.3284375 31.0109375 -19.6484375 32.7109375 C-15.3319453 33.47267142 -11.90410297 33.87157354 -7.6484375 32.7109375 C-7.6484375 31.0609375 -7.6484375 29.4109375 -7.6484375 27.7109375 C-8.32648438 27.54078125 -9.00453125 27.370625 -9.703125 27.1953125 C-25.8235516 22.99774989 -25.8235516 22.99774989 -31.2734375 18.5859375 C-33.33597427 14.27336062 -33.38497478 10.4007259 -32.6484375 5.7109375 C-30.29244432 0.72710577 -27.74888441 -1.31133819 -22.6484375 -3.2890625 C-15.13576242 -5.40802214 -6.33611204 -4.95477956 0 0 Z " fill="#FFFFFF" transform="translate(156.6484375,178.2890625)"/>
<path d="M0 0 C3.92752163 4.03525913 5.25181944 7.40833479 6 13 C3.91846065 13.13536022 1.83438794 13.23215465 -0.25 13.3125 C-1.41015625 13.37050781 -2.5703125 13.42851562 -3.765625 13.48828125 C-7 13 -7 13 -9.17578125 10.546875 C-9.77777344 9.70640625 -10.37976563 8.8659375 -11 8 C-13.66460238 6.85045981 -16.12097176 6.69724505 -19 7 C-22.48131633 9.07397568 -23.71486282 10.14458846 -25 14 C-25.39558481 18.91438046 -25.62954419 23.45761674 -23.75 28.0625 C-21.80792916 30.21264986 -20.79828761 31.22269789 -18 32 C-14.45975858 32.07767129 -14.45975858 32.07767129 -11 31 C-10.11054688 29.74316406 -10.11054688 29.74316406 -9.203125 28.4609375 C-7 26 -7 26 -3.765625 25.51171875 C-2.60546875 25.56972656 -1.4453125 25.62773437 -0.25 25.6875 C1.50570312 25.75517578 1.50570312 25.75517578 3.296875 25.82421875 C4.18890625 25.88222656 5.0809375 25.94023437 6 26 C5.28340542 32.52380262 2.67208365 35.60960123 -2 40 C-7.73714781 44.04208141 -14.85605913 44.56617797 -21.6875 43.6328125 C-28.73820665 41.89163189 -33.29500706 38.39561353 -37.09375 32.22265625 C-40.30905549 25.18173265 -40.227888 15.93717037 -37.9375 8.625 C-35.54551986 3.38700645 -31.87491414 -0.57478703 -26.70703125 -3.13671875 C-17.8481431 -6.24930107 -7.68012381 -5.78186192 0 0 Z " fill="#FFFFFF" transform="translate(226,179)"/>
<path d="M0 0 C3.96 0 7.92 0 12 0 C12 20.46 12 40.92 12 62 C8.04 62 4.08 62 0 62 C0 41.54 0 21.08 0 0 Z " fill="#FFFFFF" transform="translate(289,160)"/>
<path d="M0 0 C3.96 0 7.92 0 12 0 C12 15.51 12 31.02 12 47 C8.04 47 4.08 47 0 47 C0 31.49 0 15.98 0 0 Z " fill="#FFFFFF" transform="translate(169,175)"/>
<path d="M0 0 C2.375 1 2.375 1 4 3 C4.66441897 6.58338321 4.74426185 9.78567803 2.8125 12.9375 C0.45486621 14.31956119 -1.26425721 14.8045898 -4 15 C-7.81263347 13.93600927 -8.75011007 13.3748349 -11 10 C-10.78206897 3.89793103 -10.78206897 3.89793103 -8.3125 1.0625 C-5.2941394 -0.32431433 -3.29029921 -0.4112874 0 0 Z " fill="#FFFFFF" transform="translate(178,156)"/>
</svg>
