<?xml version="1.0" encoding="UTF-8"?>
<svg version="1.1" xmlns="http://www.w3.org/2000/svg" width="30" height="30">
<path d="M0 0 C3.91475809 0.02542051 5.44718853 0.13081312 8.875 2.1875 C11.10273726 4.7122689 11.79625838 5.51028226 11.6015625 8.88671875 C11.52679687 9.91410156 11.45203125 10.94148437 11.375 12 C11.26489017 16.55972703 11.26489017 16.55972703 13.3046875 20.484375 C14.57271002 21.63527094 15.86783426 22.75719593 17.19140625 23.84375 C18.75 25.3125 18.75 25.3125 19.1875 28.25 C18.9709375 29.2709375 18.9709375 29.2709375 18.75 30.3125 C16.6875 30.75 16.6875 30.75 13.75 30.3125 C12.2109375 28.75390625 12.2109375 28.75390625 10.5625 26.8125 C8.42259943 24.47125211 7.43005994 23.4104116 4.25390625 22.953125 C2.51821196 23.02533814 0.78338716 23.12380109 -0.94921875 23.25 C-4.17036307 23.33750137 -5.82355679 22.3713003 -8.25 20.3125 C-11.63007138 16.50268849 -11.80784134 13.6818489 -11.68359375 8.7265625 C-11.02973858 5.08617969 -9.12419545 3.48567217 -6.25 1.3125 C-4.53310511 -0.40439489 -2.34121863 0.05946946 0 0 Z M-5.1875 6.4375 C-6.77990283 9.24762264 -6.70319325 11.14014724 -6.25 14.3125 C-4.83333333 16.89583333 -4.83333333 16.89583333 -2.25 18.3125 C1.37649951 18.40166154 1.37649951 18.40166154 4.75 17.3125 C7.06282587 13.84326119 7.17478586 12.39044425 6.75 8.3125 C5.81402685 6.29298938 5.81402685 6.29298938 3.75 5.3125 C-0.9149851 4.80701405 -0.9149851 4.80701405 -5.1875 6.4375 Z " fill="#FFFFFF" transform="translate(11.25,-0.3125)"/>
</svg>
